<svg xmlns="http://www.w3.org/2000/svg" width="1024" height="768" viewBox="0 0 1024 768" version="1.1"><path d="M 271 61.121 C 137.387 62.892, 88.433 63.784, 86.770 64.478 C 85.818 64.874, 84.506 66.842, 83.855 68.849 C 82.137 74.146, 81.312 704.734, 83.021 706.370 C 83.909 707.221, 84.856 706.656, 86.850 704.087 C 92.611 696.666, 98.577 690.776, 101.954 689.178 C 106.099 687.217, 113.645 687.202, 219.500 688.950 C 351.638 691.132, 450.345 692.034, 536 691.844 C 621.731 691.654, 656.054 691.232, 768 688.990 C 798.525 688.379, 842.856 687.498, 866.513 687.032 C 909.106 686.193, 909.578 686.161, 915.013 683.737 C 921.434 680.872, 923.174 679.122, 926.040 672.643 C 927.951 668.322, 928.201 665.526, 928.623 643.680 C 928.881 630.381, 929.267 613.650, 929.482 606.500 C 929.697 599.350, 930.188 532.525, 930.575 458 C 931.327 312.809, 930.776 266.433, 926.397 106.500 C 925.627 78.410, 926.019 76.032, 932.570 69.028 C 935.007 66.424, 937 63.777, 937 63.146 C 937 62.315, 929.508 61.971, 909.750 61.896 C 894.763 61.839, 876.875 61.633, 870 61.439 C 841.361 60.631, 328.473 60.358, 271 61.121 M 157.500 81.044 C 133.162 82.548, 119.603 88.015, 113.200 98.906 L 110.500 103.500 109.876 171 C 109.533 208.125, 109.195 332.070, 109.126 446.434 C 109 654.347, 109 654.369, 111.056 658.616 C 113.261 663.171, 119.310 667.683, 126.500 670.136 C 129.851 671.279, 192.522 671.500, 513 671.500 C 883.373 671.500, 895.669 671.441, 900.841 669.639 C 907.412 667.350, 912.766 662.789, 915.093 657.500 C 916.752 653.727, 916.892 638.004, 917.556 381 C 918.080 177.795, 917.968 107.443, 917.116 104.343 C 915.448 98.278, 908.352 90.880, 901.067 87.610 C 892.588 83.805, 883.819 82.133, 866.500 81.018 C 848.850 79.882, 175.917 79.907, 157.500 81.044 M 338.658 720.826 C 337.217 722.418, 337 725.622, 337 745.329 C 337 764.687, 337.216 768, 338.481 768 C 339.738 768, 340.003 764.556, 340.231 745.250 L 340.500 722.500 515.332 722.247 C 654.454 722.046, 690.080 721.740, 689.749 720.747 C 689.420 719.759, 653.153 719.448, 514.824 719.247 C 346.759 719.004, 340.254 719.062, 338.658 720.826 M 831 736.081 C 829.810 736.914, 829.943 737.007, 831.645 736.532 C 834.694 735.679, 837.527 738.600, 835.839 740.856 C 834.951 742.044, 835.150 741.996, 836.555 740.685 C 838.477 738.892, 838.472 738.848, 836.139 736.935 C 833.428 734.713, 833.045 734.649, 831 736.081 M 808 739.958 L 808 743 816.066 743 L 824.133 743 823.816 740.250 C 823.505 737.543, 823.379 737.495, 815.750 737.208 L 808 736.916 808 739.958 M 342.667 765.667 C 342.300 766.033, 342 766.708, 342 767.167 C 342 767.625, 419.625 768, 514.500 768 C 667.167 768, 687 767.828, 687 766.500 C 687 765.172, 667.241 765, 515.167 765 C 420.658 765, 343.033 765.300, 342.667 765.667" stroke="none" fill="#16130b" fill-rule="evenodd"/><path d="M 0 384 L 0 768 168.500 768 L 337 768 337 745.155 C 337 724.279, 337.158 722.167, 338.832 720.652 C 340.525 719.120, 353.846 719.013, 514.999 719.247 C 653.188 719.448, 689.420 719.759, 689.749 720.747 C 690.080 721.740, 654.454 722.046, 515.332 722.247 L 340.500 722.500 340.231 745.250 C 339.988 765.875, 340.529 771.276, 342.362 766.500 C 342.870 765.175, 362.974 765, 514.969 765 C 667.366 765, 687 765.172, 687 766.503 C 687 767.835, 706.160 767.977, 855.750 767.753 L 1024.500 767.500 1024.751 383.750 L 1025.003 0 512.501 0 L 0 0 0 384 M 0.495 384.500 C 0.495 595.700, 0.610 681.951, 0.750 576.169 C 0.890 470.386, 0.890 297.586, 0.750 192.169 C 0.610 86.751, 0.495 173.300, 0.495 384.500 M 271 61.121 C 137.387 62.892, 88.433 63.784, 86.770 64.478 C 85.818 64.874, 84.506 66.842, 83.855 68.849 C 82.137 74.146, 81.312 704.734, 83.021 706.370 C 83.909 707.221, 84.856 706.656, 86.850 704.087 C 92.611 696.666, 98.577 690.776, 101.954 689.178 C 106.099 687.217, 113.645 687.202, 219.500 688.950 C 351.638 691.132, 450.345 692.034, 536 691.844 C 621.731 691.654, 656.054 691.232, 768 688.990 C 798.525 688.379, 842.856 687.498, 866.513 687.032 C 909.106 686.193, 909.578 686.161, 915.013 683.737 C 921.434 680.872, 923.174 679.122, 926.040 672.643 C 927.951 668.322, 928.201 665.526, 928.623 643.680 C 928.881 630.381, 929.267 613.650, 929.482 606.500 C 929.697 599.350, 930.188 532.525, 930.575 458 C 931.327 312.809, 930.776 266.433, 926.397 106.500 C 925.627 78.410, 926.019 76.032, 932.570 69.028 C 935.007 66.424, 937 63.777, 937 63.146 C 937 62.315, 929.508 61.971, 909.750 61.896 C 894.763 61.839, 876.875 61.633, 870 61.439 C 841.361 60.631, 328.473 60.358, 271 61.121 M 831 736.081 C 829.810 736.914, 829.943 737.007, 831.645 736.532 C 834.694 735.679, 837.527 738.600, 835.839 740.856 C 834.951 742.044, 835.150 741.996, 836.555 740.685 C 838.477 738.892, 838.472 738.848, 836.139 736.935 C 833.428 734.713, 833.045 734.649, 831 736.081 M 808 739.958 L 808 743 816.066 743 L 824.133 743 823.816 740.250 C 823.505 737.543, 823.379 737.495, 815.750 737.208 L 808 736.916 808 739.958" stroke="none" fill="#d5d4c1" fill-rule="evenodd"/></svg>